PathFileType	4	(X/Y/Z)	..\data\2015043\dynamic\2015043_C5_05.trc
DataRate	CameraRate	NumFrames	NumMarkers	Units	OrigDataRate	OrigDataStartFrame	OrigNumFrames
100.000000	100.000000	4	52	mm	100.000000	104	167
Frame#	Time	L_IAS			L_IPS			R_IPS			R_IAS			L_FTC			L_FLE			L_FME			L_FAX			L_TTC			L_FAL			L_TAM			L_FCC			L_FM1			L_FM2			L_FM5			R_FTC			R_FLE			R_FME			R_FAX			R_TTC			R_FAL			R_TAM			R_FCC			R_FM1			R_FM2			R_FM5			CV7			TV10			SXS			SJN			L_SIA			L_SRS			L_SAA			L_SAE			L_HLE			L_HME			L_UOA			L_RSP			L_UHE			L_HM2			L_HM5			R_SIA			R_SRS			R_SAA			R_SAE			R_HLE			R_HME			R_UOA			R_RSP			R_UHE			R_HM2			R_HM5			
		X1	Y1	Z1	X2	Y2	Z2	X3	Y3	Z3	X4	Y4	Z4	X5	Y5	Z5	X6	Y6	Z6	X7	Y7	Z7	X8	Y8	Z8	X9	Y9	Z9	X10	Y10	Z10	X11	Y11	Z11	X12	Y12	Z12	X13	Y13	Z13	X14	Y14	Z14	X15	Y15	Z15	X16	Y16	Z16	X17	Y17	Z17	X18	Y18	Z18	X19	Y19	Z19	X20	Y20	Z20	X21	Y21	Z21	X22	Y22	Z22	X23	Y23	Z23	X24	Y24	Z24	X25	Y25	Z25	X26	Y26	Z26	X27	Y27	Z27	X28	Y28	Z28	X29	Y29	Z29	X30	Y30	Z30	X31	Y31	Z31	X32	Y32	Z32	X33	Y33	Z33	X34	Y34	Z34	X35	Y35	Z35	X36	Y36	Z36	X37	Y37	Z37	X38	Y38	Z38	X39	Y39	Z39	X40	Y40	Z40	X41	Y41	Z41	X42	Y42	Z42	X43	Y43	Z43	X44	Y44	Z44	X45	Y45	Z45	X46	Y46	Z46	X47	Y47	Z47	X48	Y48	Z48	X49	Y49	Z49	X50	Y50	Z50	X51	Y51	Z51	X52	Y52	Z52	

105	1.04	91.24348449707031	982.2064208984377	98.47927856445317	-87.36812591552739	996.8921508789065	176.0181427001953	-84.52410888671879	996.7888183593752	273.3766479492188	91.14162445068357	987.7253417968752	339.5303649902344	-7.308916091918952	890.9866333007815	44.09918975830079	-55.62231826782229	476.2558593750001	81.32397460937501	-49.6895904541016	468.4309997558595	199.0397033691407	-87.12946319580081	410.3002319335939	79.96821594238281	-31.195520401001	384.8730468750001	132.9239807128907	-208.0789642333985	89.77645874023439	150.7207336425781	-169.6495819091797	92.93020629882814	237.8678131103516	-260.5728149414063	43.54488754272462	197.5145111083985	-57.0727806091309	19.37058258056641	204.2973022460938	-57.88469314575198	34.72623443603516	142.4210510253907	-117.2329940795899	23.82743644714356	95.98426055908203	-0.5895199179649832	890.6906738281252	390.0356750488282	167.951187133789	487.0396118164064	370.1376342773438	189.3840026855469	484.3845825195314	243.8385772705079	180.031021118164	422.2452087402345	374.6974792480469	254.3147277832032	435.5938415527345	324.519256591797	281.1888122558594	85.06449127197267	326.1102294921876	320.6983947753906	120.4720153808594	246.4529876708985	264.8390197753906	28.1732578277588	267.8108520507814	454.9494323730469	93.40066528320314	282.6672363281251	439.9227294921876	95.94875335693361	332.9558105468751	392.6154479980469	62.06476211547853	373.5157165527345	-12.58556652069095	1502.729370117188	204.3299407958985	-83.04950714111332	1276.609252929688	212.8659057617188	145.4191741943359	1264.388427734375	218.7180328369141	100.8242263793945	1419.374145507813	215.6560363769532	-104.0161437988282	1301.69580078125	113.6025695800781	-70.21707916259768	1424.78662109375	114.0135498046875	-11.8621301651001	1425.9033203125	26.1207675933838	30.48085594177247	1426.709716796875	7.410589218139654	88.79710388183597	1099.634521484375	-75.60385131835938	48.64644622802736	1072.53759765625	-0.1651324927806795	58.44853591918947	1051.482421875	-58.81028366088868	293.8143615722657	943.435485839844	21.77802467346195	275.0367736816407	910.0745849609377	-43.89781951904294	368.5185852050782	888.4896240234377	32.22119522094732	303.7019042968751	845.0075683593752	-34.82719039916989	-113.5431213378907	1312.759765625	291.3771972656251	-78.78181457519536	1432.887084960938	289.3640747070313	-45.22951507568365	1437.243774414063	387.1483154296876	-15.73452091217047	1431.799438476563	423.685516357422	-69.6312332153321	1106.1943359375	482.6885681152345	-90.93340301513679	1099.170166015625	411.7069091796876	-99.89237213134774	1077.05712890625	446.5197753906251	58.65272521972652	862.3375244140627	454.6950988769532	-14.10475730896002	851.9349365234377	491.9250488281251	88.52569580078121	779.4822998046877	459.8078613281251	-9.652174949646058	777.9871826171877	496.5855102539064	
106	1.05	102.097900390625	980.5880126953127	98.53103637695317	-76.12243652343754	994.8114013671877	177.1920776367188	-72.79736328125004	994.5540161132815	274.5205993652344	103.1470565795898	985.6049804687502	339.7772521972657	2.936009407043452	889.5001220703127	44.27890014648438	-47.79924774169923	475.3280029296876	81.32640838623048	-41.41341018676761	467.4294433593751	198.8476257324219	-80.14212036132815	409.7352294921876	79.91213989257812	-24.75154304504397	383.3988952636719	132.9247131347657	-207.0934448242188	91.45405578613283	150.1288757324219	-168.8710937500001	94.10140228271486	237.452377319336	-260.4906921386719	45.97729873657227	196.7300720214844	-57.18714904785161	19.58875274658203	204.1478271484376	-57.69779968261722	34.86581802368165	142.2623138427735	-117.0086288452149	23.95139694213868	95.78224945068359	11.84028625488277	888.057800292969	390.387420654297	179.8601531982422	485.0512084960939	369.4938354492188	199.8424987792969	482.1149291992189	242.7973175048829	193.1846923828125	420.5158691406251	373.9465332031251	266.9209899902344	435.2723388671876	323.3710937500001	303.9042663574219	85.34229278564455	326.1702880859376	341.9571838378906	121.9401626586914	246.2919311523438	288.8044738769531	27.85487174987794	268.0194396972657	477.4422607421876	98.486686706543	281.0340270996095	462.9594116210938	100.3309478759766	331.4696044921876	417.0152587890626	64.71082305908205	372.3932189941407	-0.6948517560959115	1500.806762695313	205.5584259033204	-71.40219879150395	1274.876708984375	213.9584045410157	156.7734832763672	1262.121215820313	219.4702911376954	112.7805023193359	1417.418823242188	216.8444366455079	-92.17655181884768	1300.087890625	114.4708938598633	-58.33747100830081	1423.167724609375	115.0375671386719	0.2622243165969816	1424.324340820313	27.22079467773438	42.55477905273438	1425.09130859375	8.58654975891114	102.1956405639649	1098.66015625	-75.29536437988281	61.50809478759767	1070.958618164063	-0.1288503855466768	72.05730438232425	1049.916748046875	-58.79332351684571	308.4398193359376	945.6736450195315	24.43163681030278	290.9481506347657	911.8606567382815	-41.25766372680661	383.9133911132813	892.0518798828127	35.8370094299317	320.7409057617188	847.3230590820315	-31.6740856170654	-101.9262008666993	1310.767700195313	292.0832214355469	-67.01597595214849	1430.918701171875	290.3615417480469	-33.5808830261231	1435.050659179688	388.1907653808595	-4.135901451110893	1429.503051757813	424.7611694335939	-59.03767776489265	1103.948120117188	482.6844177246095	-80.24011230468757	1097.12353515625	411.5510864257814	-89.4079666137696	1075.176879882813	446.362030029297	66.75598907470699	858.925231933594	455.1488647460939	-6.159507751464906	849.314392089844	492.2648315429689	95.70793151855464	775.7470703125002	460.3379516601564	-2.569868326187195	775.3338623046877	496.9759216308595	
107	1.06	113.1995468139649	979.0140380859377	98.63243865966801	-64.66294097900395	992.8662719726565	178.338607788086	-60.90102767944341	992.4875488281252	275.6262817382813	115.3037033081055	983.611267089844	340.0700378417969	13.41642951965332	888.069519042969	44.49481964111329	-39.57929611206056	474.4366760253907	81.3068084716797	-32.74830627441409	466.4576721191407	198.6654205322266	-72.77938079833987	409.2251586914064	79.81468963623047	-17.96477317810061	381.9457702636719	132.9006042480469	-206.0081634521485	93.37733459472658	149.3499145507812	-168.0201873779297	95.5326385498047	236.8899993896485	-260.3947753906251	48.71996307373048	195.7457122802735	-57.27045440673832	19.82684707641602	203.954574584961	-57.43863296508792	35.01961517333985	142.0591278076172	-116.7131805419922	24.03066062927247	95.52902221679688	24.42242622375484	885.6096801757815	390.796356201172	192.3874816894531	483.4175720214845	368.9901123046876	211.130859375	480.3108825683595	242.0419158935548	206.5391082763672	419.0291748046876	373.3167724609376	279.7624816894531	434.8093566894532	322.339324951172	323.5451354980469	85.47456359863283	325.9705200195314	360.4609375	122.882080078125	245.8945617675782	309.2092895507812	27.61989784240723	267.9402160644532	496.8023986816407	102.0033035278321	279.3744201660157	482.8161926269532	103.2811279296875	329.9263305664064	437.9409484863282	66.39289855957033	371.1141357421876	11.23119926452634	1498.980102539063	206.9465026855469	-59.6239395141602	1273.20556640625	215.1448822021485	168.3158569335938	1260.041015625	220.4154663085938	124.7946929931641	1415.5830078125	218.1905364990235	-80.24988555908206	1298.539306640625	115.4838180541992	-46.40287399291994	1421.624389648438	116.2094345092774	12.40677642822266	1422.818359375	28.46379089355469	54.68297576904298	1423.58056640625	9.912119865417489	115.4076919555664	1097.774780273438	-74.85781860351562	74.19834899902345	1069.472045898438	0.03701420873404459	85.40483856201175	1048.475341796875	-58.64863967895509	322.6093139648438	947.6435546875002	26.99901580810551	306.2958374023438	913.4483642578127	-38.7011795043945	398.7423095703126	895.2190551757815	39.30206298828131	337.0768432617188	849.3884277343752	-28.62618827819821	-90.22773742675787	1308.830200195313	292.9106750488282	-55.2101440429688	1429.015747070313	291.4923400878907	-21.89521217346196	1432.93408203125	389.3742980957032	7.495347023010203	1427.284790039063	425.9772949218751	-48.3049621582032	1101.74365234375	482.7939758300782	-69.41454315185554	1095.119018554688	411.5184936523439	-78.77494049072273	1073.331665039063	446.3284301757814	75.09115600585933	855.6372680664065	455.6842651367189	2.030658721923768	846.787048339844	492.6856384277345	103.1615295410156	772.1590576171877	460.9503784179689	4.805397987365662	772.7822875976565	497.4415283203126	
108	1.07	124.5913238525391	977.4958496093752	98.79338836669926	-52.95246124267582	991.0862426757815	179.4405822753907	-48.80413436889653	990.6221923828127	276.6795043945313	127.6423568725586	981.789001464844	340.4140625000001	24.17708587646484	886.7006835937502	44.76076889038087	-30.96692085266115	473.6032714843751	81.26467895507814	-23.70644760131839	465.5213928222657	198.5213623046876	-65.06288909912112	408.7979431152345	79.68253326416016	-10.8355588912964	380.5271911621094	132.8330535888672	-204.8154602050782	95.57202911376955	148.4132385253906	-167.0522003173829	97.24273681640628	236.1832580566407	-260.2537536621094	51.81026458740236	194.60791015625	-57.32594680786137	20.05768013000489	203.7302551269532	-57.12711715698245	35.16167068481446	141.8190612792969	-116.376953125	24.05129432678223	95.25297546386719	37.17260360717769	883.4014892578127	391.2580566406251	205.5044403076172	482.1435852050782	368.6039123535157	223.2606964111328	478.9952697753907	241.5713500976563	220.0835876464844	417.7762451171876	372.8032226562501	292.8386840820312	434.196746826172	321.4066162109376	340.1510925292969	85.30062103271486	325.5393676757814	376.2714538574219	123.1270904541016	245.2755279541017	326.0677185058594	27.29881286621094	267.6095275878907	513.1262817382814	103.7011184692383	277.751678466797	499.5653381347657	104.5674591064453	328.3867187500001	455.4139709472657	66.91964721679689	369.7415466308595	23.19067764282224	1497.27783203125	208.4993591308594	-47.7004432678223	1271.617065429688	216.4214630126954	180.0652923583984	1258.1865234375	221.5547637939454	136.8702087402344	1413.896850585938	219.696762084961	-68.22431945800784	1297.075561523438	116.6354598999024	-34.41068649291994	1420.18359375	117.5299682617188	24.57391548156739	1421.419311523438	29.84936714172364	66.87230682373048	1422.21533203125	11.38810348510743	128.4265594482422	1097.004028320313	-74.28417205810547	86.71035766601564	1068.110229492188	0.3395976424217331	98.47551727294926	1047.18603515625	-58.37074279785156	336.3181457519532	949.333679199219	29.46804618835454	321.0617065429688	914.8247070312502	-36.24634170532223	413.0020751953126	897.9646606445315	42.59391403198248	352.6844787597657	851.1822509765627	-25.71510314941403	-78.43508911132818	1306.96923828125	293.8565063476563	-43.35868835449223	1427.200439453125	292.7567138671876	-10.16668415069585	1430.919067382813	390.6972961425782	19.16494750976558	1425.17138671875	427.3341674804689	-37.44699096679694	1099.61376953125	483.0258789062501	-58.46077728271491	1093.188598632813	411.6145019531251	-67.9980545043946	1071.5498046875	446.4228515625001	83.67230224609371	852.5098876953127	456.301239013672	10.4800825119018	844.3796386718752	493.1809997558595	110.9110870361328	768.755065917969	461.6424255371095	12.49433612823481	770.3589477539065	497.9756164550782	
